<svg width="12" height="10" viewBox="0 0 12 10" fill="none" xmlns="http://www.w3.org/2000/svg">
<path d="M11.4537 2.03645C11.4128 2.12845 11.3537 2.21125 11.28 2.27991L11.279 2.28091L4.52497 9.02591C4.38434 9.16636 4.19372 9.24525 3.99497 9.24525C3.79622 9.24525 3.60559 9.16636 3.46497 9.02591L0.719968 6.27991C0.587488 6.13773 0.515365 5.94969 0.518794 5.75539C0.522222 5.56109 0.600934 5.3757 0.738347 5.23829C0.87576 5.10087 1.06114 5.02216 1.25545 5.01873C1.44975 5.01531 1.63779 5.08743 1.77997 5.21991L3.99697 7.43591L10.22 1.21991C10.2886 1.14622 10.3714 1.08712 10.4634 1.04613C10.5554 1.00514 10.6547 0.983095 10.7554 0.981318C10.8561 0.979541 10.9562 0.998066 11.0496 1.03579C11.143 1.07351 11.2278 1.12965 11.299 1.20087C11.3702 1.27209 11.4264 1.35692 11.4641 1.45031C11.5018 1.5437 11.5203 1.64373 11.5186 1.74443C11.5168 1.84513 11.4947 1.94445 11.4537 2.03645Z" fill="#27316B"/>
</svg>
