<svg width="24" height="24" viewBox="0 0 24 24" fill="none" xmlns="http://www.w3.org/2000/svg">
<path d="M21.0305 15.393C19.8862 15.2517 18.7499 15.0514 17.6262 14.7929C17.3519 14.7012 17.0585 14.6818 16.7746 14.7368C16.4906 14.7917 16.2256 14.919 16.0052 15.1065C15.7188 15.3984 14.892 16.2147 14.0329 17.058C10.9546 15.5441 8.46511 13.0516 6.95424 9.97075C7.79179 9.1112 8.5753 8.28949 8.89411 8.00297C9.08144 7.78248 9.20872 7.51735 9.26362 7.23323C9.31853 6.94911 9.2992 6.65562 9.20752 6.38117C8.94881 5.25524 8.74861 4.11665 8.60772 2.96998C8.59263 2.82396 8.54797 2.68255 8.47647 2.55436C8.40498 2.42616 8.30813 2.31388 8.19185 2.22435C8.07556 2.13482 7.94228 2.06992 7.8001 2.03361C7.65793 1.99729 7.50986 1.99032 7.36491 2.01312H2.76109C2.57106 2.03028 2.39317 2.11397 2.25875 2.24945C2.12432 2.38492 2.04198 2.5635 2.02621 2.75374C1.72902 6.91096 4.04714 11.3601 4.51725 12.2142V12.2467L4.58209 12.371C6.26494 15.291 8.688 17.7152 11.6067 19.3988L11.8444 19.534C12.9252 20.107 17.221 22.2694 21.2358 21.9721C21.4279 21.9587 21.6089 21.8774 21.7466 21.7427C21.8842 21.608 21.9694 21.4287 21.9869 21.2369V16.6364C22.0097 16.4913 22.0027 16.3432 21.9664 16.201C21.9301 16.0587 21.8652 15.9254 21.7757 15.809C21.6863 15.6927 21.574 15.5958 21.4459 15.5243C21.3178 15.4527 21.1764 15.4081 21.0305 15.393Z" fill="#27316B" stroke="#27316B" stroke-linecap="round" stroke-linejoin="round"/>
</svg>
